<?xml version="1.0" encoding="UTF-8"?>
<svg version="1.1" xmlns="http://www.w3.org/2000/svg" width="368" height="238">
<path d="M0 0 C121.44 0 242.88 0 368 0 C368 78.54 368 157.08 368 238 C246.56 238 125.12 238 0 238 C0 159.46 0 80.92 0 0 Z " fill="#0D1037" transform="translate(0,0)"/>
<path d="M0 0 C1.20953585 -0.00128164 1.20953585 -0.00128164 2.44350678 -0.00258917 C5.13041607 -0.00422897 7.81726216 0.00125274 10.50416565 0.00672913 C12.43620807 0.00701135 14.36825061 0.00685258 16.30029297 0.00628662 C21.53525811 0.00600001 26.77020028 0.01187474 32.00516009 0.01886058 C37.47976741 0.02511678 42.95437526 0.02569971 48.4289856 0.02688599 C58.79146958 0.02999261 69.153943 0.038197 79.51642233 0.04823548 C91.31563323 0.05941736 103.11484464 0.0649123 114.91405952 0.06993091 C139.18181234 0.08038016 163.44955578 0.09796668 187.71730042 0.12025452 C186.77077318 1.3975688 185.82211635 2.67330515 184.87257385 3.94837952 C184.34452148 4.65897522 183.81646912 5.36957092 183.27241516 6.10169983 C181.33204406 8.62032117 179.22227939 10.88082712 176.96730042 13.12025452 C176.20933167 13.88337952 175.45136292 14.64650452 174.67042542 15.43275452 C172.71730042 17.12025452 172.71730042 17.12025452 170.71730042 17.12025452 C170.55230042 17.82150452 170.38730042 18.52275452 170.21730042 19.24525452 C167.5353895 24.38558377 162.03203366 27.92222092 156.71730042 30.12025452 C153.8819952 30.37638092 153.8819952 30.37638092 150.53979492 30.38526917 C149.27124161 30.39354233 148.00268829 30.40181549 146.69569397 30.41033936 C145.29200734 30.40951476 143.8883208 30.40851712 142.4846344 30.40736389 C141.00437036 30.41338926 139.52410974 30.42031381 138.04385376 30.42807007 C134.85616489 30.44295878 131.66853865 30.45170837 128.48081779 30.45578003 C123.43247111 30.46250086 118.38425779 30.4842669 113.33596802 30.50831604 C102.60894346 30.55729267 91.8818905 30.58956779 81.15480042 30.62025452 C69.59735685 30.65337096 58.03996544 30.68947115 46.4826017 30.74438524 C41.47292787 30.76762538 36.46334601 30.78144805 31.45362365 30.78787994 C28.32282218 30.79385677 25.19209425 30.80798681 22.0613308 30.82422447 C20.61949377 30.83005605 19.17763858 30.83258203 17.73579025 30.83138466 C1.03617226 30.82147846 -21.3309341 33.23841748 -34.28269958 45.12025452 C-38.8212372 49.71889235 -38.8212372 49.71889235 -42.28269958 55.12025452 C-41.04519958 55.22337952 -39.80769958 55.32650452 -38.53269958 55.43275452 C-30.0107705 56.39750121 -21.93364982 58.48399474 -14.22019958 62.25306702 C-12.25863898 63.13102358 -10.37826932 63.66184864 -8.28269958 64.12025452 C-8.28269958 64.78025452 -8.28269958 65.44025452 -8.28269958 66.12025452 C-7.47832458 66.30587952 -6.67394958 66.49150452 -5.84519958 66.68275452 C-1.73848336 68.33985054 1.06607876 70.60814798 4.47511292 73.38587952 C6.44686552 74.91106794 8.3293925 76.0931096 10.52980042 77.24525452 C13.87440086 79.21266654 15.41549317 81.05117818 17.71730042 84.12025452 C20.14937127 86.24052142 22.46581956 87.97917989 25.27980042 89.55775452 C28.10423531 91.36828971 29.64154691 93.50882269 31.71730042 96.12025452 C33.83390469 97.43190708 33.83390469 97.43190708 35.71730042 98.12025452 C35.84105042 97.37775452 35.96480042 96.63525452 36.09230042 95.87025452 C36.67216743 93.31883967 37.45438781 91.39349721 38.71730042 89.12025452 C39.37730042 89.12025452 40.03730042 89.12025452 40.71730042 89.12025452 C40.88230042 87.94462952 41.04730042 86.76900452 41.21730042 85.55775452 C42.3957391 80.1657617 44.94883242 75.63788682 47.61280823 70.86903381 C50.37211618 65.89890229 52.55728859 60.8558092 54.51417542 55.51087952 C55.96318954 52.63166963 56.91240713 51.71547947 59.71730042 50.12025452 C62.39729929 49.84543619 64.83884171 49.74033381 67.51515198 49.77967834 C68.29602173 49.77924026 69.07689148 49.77880219 69.88142395 49.77835083 C72.4571806 49.78043744 75.03228276 49.80376201 77.60792542 49.82728577 C79.39582463 49.83288219 81.18372845 49.83715207 82.97163391 49.84014893 C87.67352538 49.85159409 92.37513809 49.88105845 97.07691956 49.91426086 C101.87627898 49.94496882 106.67568353 49.95865581 111.47511292 49.97377014 C120.88929777 50.00592846 130.3032759 50.05712086 139.71730042 50.12025452 C139.31752991 50.58496155 138.9177594 51.04966858 138.50587463 51.52845764 C137.97494202 52.14656311 137.4440094 52.76466858 136.89698792 53.40150452 C136.37346741 54.01058655 135.8499469 54.61966858 135.31056213 55.24720764 C133.80066287 57.02225318 132.31846314 58.81713826 130.84230042 60.62025452 C128.01746225 63.93572247 124.84725359 66.68483094 121.52589417 69.49134827 C119.54473571 71.17629526 119.54473571 71.17629526 117.65480042 73.80775452 C114.44169822 77.64274746 111.07053581 79.89063327 106.08766174 80.37684631 C103.10152037 80.36999795 100.13706321 80.27231381 97.15480042 80.12025452 C87.63580145 79.50538005 87.63580145 79.50538005 79.71730042 84.12025452 C73.06857659 90.60276025 69.81605725 99.70264894 66.90480042 108.37025452 C64.87756784 114.22002308 61.97065614 119.53085247 58.97779846 124.93177795 C57.14190876 128.27548108 55.50108735 131.52901806 54.22511292 135.12806702 C52.67289185 139.47738083 50.48598822 143.33370679 48.15480042 147.30775452 C45.71463491 151.49821644 43.36355603 155.53743482 41.71730042 160.12025452 C38.80115045 157.29543811 36.19000667 154.35298353 33.65480042 151.18275452 C32.98319885 150.34873108 32.31159729 149.51470764 31.61964417 148.65541077 C29.71730042 146.12025452 29.71730042 146.12025452 28.28370667 143.61634827 C26.4345727 140.66972332 24.20565002 138.54460723 21.71730042 136.12025452 C20.25666401 134.38951839 18.81923746 132.63894728 17.40480042 130.87025452 C13.79886888 126.39914142 10.05690798 122.10817457 6.15089417 117.89759827 C4.71730042 116.12025452 4.71730042 116.12025452 4.71730042 114.12025452 C4.12175354 113.8663092 3.52620667 113.61236389 2.91261292 113.35072327 C0.47012072 111.98171074 -0.69131703 110.62782668 -2.40769958 108.43275452 C-11.19570022 98.09612531 -26.63080535 88.2212255 -40.30613708 86.80775452 C-51.13818314 86.39608531 -60.44267673 88.85998187 -68.75926208 95.94837952 C-70.28269958 97.12025452 -70.28269958 97.12025452 -72.28269958 97.12025452 C-74.03036978 93.48675838 -75.68410342 89.82176587 -77.28269958 86.12025452 C-77.61269958 85.36486389 -77.94269958 84.60947327 -78.28269958 83.83119202 C-82.92898438 71.18793627 -81.43233488 56.79638852 -76.04051208 44.70619202 C-71.01286576 34.44979352 -65.15772586 27.35221842 -56.28269958 20.12025452 C-55.19795349 19.1979303 -55.19795349 19.1979303 -54.09129333 18.25697327 C-39.48107931 6.8876654 -18.36409204 -0.0720683 0 0 Z " fill="#FBFCFC" transform="translate(142.28269958496094,47.87974548339844)"/>
<path d="M0 0 C11.55 0 23.1 0 35 0 C33.02 4.62 31.04 9.24 29 14 C28.34 14 27.68 14 27 14 C27 15.32 27 16.64 27 18 C23.70319035 17.34215037 21.15882078 16.10579427 18.25 14.4375 C17.45078125 13.98246094 16.6515625 13.52742188 15.828125 13.05859375 C15.22484375 12.70925781 14.6215625 12.35992187 14 12 C14 11.34 14 10.68 14 10 C13.44828125 9.74347656 12.8965625 9.48695312 12.328125 9.22265625 C9.64532938 7.81373842 7.23182032 6.17549991 4.75 4.4375 C3.85796875 3.81746094 2.9659375 3.19742188 2.046875 2.55859375 C1.37140625 2.04425781 0.6959375 1.52992187 0 1 C0 0.67 0 0.34 0 0 Z " fill="#ECEEF1" transform="translate(145,98)"/>
<path d="M0 0 C26.4 0 52.8 0 80 0 C78.68 1.32 77.36 2.64 76 4 C75.01 3.34 74.02 2.68 73 2 C69.74284824 1.66923038 69.74284824 1.66923038 65.95825195 1.68115234 C65.24580322 1.67110672 64.53335449 1.6610611 63.79931641 1.65071106 C61.44564619 1.61983313 59.09208995 1.60283138 56.73828125 1.5859375 C55.1058809 1.56722953 53.47349026 1.5476564 51.84111023 1.5272522 C47.54545815 1.47588567 43.2497747 1.43628423 38.95397949 1.39910889 C34.57015189 1.35909752 30.18645529 1.30799212 25.80273438 1.2578125 C17.20191234 1.1609997 8.60102557 1.07661215 0 1 C0 0.67 0 0.34 0 0 Z " fill="#D7DDE9" transform="translate(202,98)"/>
<path d="M0 0 C0.99 0.33 1.98 0.66 3 1 C2 4 2 4 0 5 C-0.65213292 7.02463255 -0.65213292 7.02463255 -1 9 C-1.99 8.34 -2.98 7.68 -4 7 C-4 7.66 -4 8.32 -4 9 C-6.30133672 11.92092737 -7.57991912 12.90305826 -11.25 13.75 C-12.61125 13.87375 -12.61125 13.87375 -14 14 C-9.33333333 9.33333333 -4.66666667 4.66666667 0 0 Z " fill="#1E1E3B" transform="translate(267,113)"/>
<path d="M0 0 C0.66 0.99 1.32 1.98 2 3 C1.34 3.66 0.68 4.32 0 5 C0.020625 5.928125 0.04125 6.85625 0.0625 7.8125 C-0.0242373 12.23610221 -1.73843053 14.53657941 -4.5625 17.8125 C-6 19 -6 19 -8 19 C-6.37003104 14.86177782 -4.63344645 10.77231222 -2.875 6.6875 C-2.59785156 6.04232422 -2.32070312 5.39714844 -2.03515625 4.73242188 C-1.35732446 3.15470995 -0.67873926 1.57732174 0 0 Z " fill="#1D1C3A" transform="translate(200,173)"/>
<path d="M0 0 C0.598125 0.185625 1.19625 0.37125 1.8125 0.5625 C4.16408762 1.22093687 4.16408762 1.22093687 7 0 C7 3.86695678 5.58090029 6.5088452 4 10 C1.47411298 7.63707344 0.11179163 6.33537489 -1 3 C-0.67 2.01 -0.34 1.02 0 0 Z " fill="#EFF1F5" transform="translate(180,198)"/>
<path d="M0 0 C1.8871875 0.061875 1.8871875 0.061875 3.8125 0.125 C3.8125 0.785 3.8125 1.445 3.8125 2.125 C1.8325 3.115 1.8325 3.115 -0.1875 4.125 C0.4725 4.785 1.1325 5.445 1.8125 6.125 C-1 6.75 -1 6.75 -4.1875 7.125 C-5.1775 6.465 -6.1675 5.805 -7.1875 5.125 C-7.1875 4.135 -7.1875 3.145 -7.1875 2.125 C-4.09861478 0.06574319 -3.47814073 -0.1140374 0 0 Z " fill="#201F44" transform="translate(143.1875,78.875)"/>
<path d="M0 0 C1.77503906 0.03480469 1.77503906 0.03480469 3.5859375 0.0703125 C5.36871094 0.09738281 5.36871094 0.09738281 7.1875 0.125 C8.10273437 0.14820313 9.01796875 0.17140625 9.9609375 0.1953125 C10.2909375 1.1853125 10.6209375 2.1753125 10.9609375 3.1953125 C5.51400436 3.29219471 0.32189083 3.32393425 -5.0390625 2.1953125 C-3.0390625 0.1953125 -3.0390625 0.1953125 0 0 Z " fill="#1A1F37" transform="translate(95.0390625,133.8046875)"/>
<path d="M0 0 C1.32 0.66 2.64 1.32 4 2 C3.773125 2.928125 3.54625 3.85625 3.3125 4.8125 C2.63680017 7.96826848 2.63680017 7.96826848 4.4375 9.875 C4.953125 10.24625 5.46875 10.6175 6 11 C3 11 3 11 0.3125 8.5 C-0.450625 7.675 -1.21375 6.85 -2 6 C-1.34 4.02 -0.68 2.04 0 0 Z " fill="#1B193D" transform="translate(160,124)"/>
<path d="M0 0 C1.43057497 2.86114995 2.80966684 5.71178063 4.125 8.625 C4.47820312 9.40101563 4.83140625 10.17703125 5.1953125 10.9765625 C6 13 6 13 6 15 C3.525 14.01 3.525 14.01 1 13 C0.67 8.71 0.34 4.42 0 0 Z " fill="#282545" transform="translate(63,127)"/>
<path d="M0 0 C3.62613199 0.56959153 5.25517741 1.92374534 7.75 4.5625 C8.36359375 5.20316406 8.9771875 5.84382812 9.609375 6.50390625 C10.06828125 6.99761719 10.5271875 7.49132812 11 8 C10.34 8.66 9.68 9.32 9 10 C4.97449681 8.6581656 4.11714364 6.5772427 2 3 C2 2.34 2 1.68 2 1 C1.34 0.67 0.68 0.34 0 0 Z " fill="#20213C" transform="translate(132,150)"/>
<path d="M0 0 C0.33 0.66 0.66 1.32 1 2 C-0.0625 5 -0.0625 5 -2 8 C-5.1875 9.375 -5.1875 9.375 -8 10 C-6.34908222 5.70761377 -3.26245434 3.1206085 0 0 Z " fill="#252441" transform="translate(109,91)"/>
<path d="M0 0 C1.33332095 2.6666419 0.67102033 4.16680303 0 7 C-0.66 7 -1.32 7 -2 7 C-2.33 8.65 -2.66 10.3 -3 12 C-3.99 12.33 -4.98 12.66 -6 13 C-2.86206897 2.86206897 -2.86206897 2.86206897 0 0 Z " fill="#282845" transform="translate(218,136)"/>
<path d="M0 0 C1.508013 0.92455559 3.00624917 1.8650747 4.5 2.8125 C5.75296875 3.59560547 5.75296875 3.59560547 7.03125 4.39453125 C7.6809375 4.92433594 8.330625 5.45414062 9 6 C9 6.99 9 7.98 9 9 C8.38125 8.649375 7.7625 8.29875 7.125 7.9375 C6.073125 7.4734375 6.073125 7.4734375 5 7 C4.01 7.495 4.01 7.495 3 8 C0 2.25 0 2.25 0 0 Z " fill="#1C1E38" transform="translate(147,100)"/>
<path d="M0 0 C0.66 0 1.32 0 2 0 C1.67 1.65 1.34 3.3 1 5 C-0.98 5.66 -2.96 6.32 -5 7 C-5 7.66 -5 8.32 -5 9 C-5.66 8.67 -6.32 8.34 -7 8 C-5.88200014 6.66079162 -4.75538103 5.32877444 -3.625 4 C-2.68527344 2.88625 -2.68527344 2.88625 -1.7265625 1.75 C-1.15679687 1.1725 -0.58703125 0.595 0 0 Z " fill="#151730" transform="translate(280,100)"/>
<path d="M0 0 C-0.99 0.495 -0.99 0.495 -2 1 C-1.67 1.66 -1.34 2.32 -1 3 C-2.45635371 3.22174933 -3.91522956 3.42698698 -5.375 3.625 C-6.18710938 3.74101563 -6.99921875 3.85703125 -7.8359375 3.9765625 C-8.55007812 3.98429687 -9.26421875 3.99203125 -10 4 C-10.66 3.34 -11.32 2.68 -12 2 C-10.75579353 1.4654744 -9.50429064 0.94791389 -8.25 0.4375 C-7.55390625 0.14746094 -6.8578125 -0.14257812 -6.140625 -0.44140625 C-3.69987216 -1.07831803 -2.3596345 -0.80248831 0 0 Z " fill="#DADFE6" transform="translate(126,51)"/>
<path d="M0 0 C0.33 0.66 0.66 1.32 1 2 C1.66 2 2.32 2 3 2 C3 1.34 3 0.68 3 0 C3.66 0.33 4.32 0.66 5 1 C3.625 3.5 3.625 3.5 2 6 C1.34 6 0.68 6 0 6 C-0.33 6.66 -0.66 7.32 -1 8 C-2.2077558 4.37673261 -1.54311128 3.35853631 0 0 Z " fill="#19173D" transform="translate(211,150)"/>
<path d="M0 0 C1.61841797 0.08701172 1.61841797 0.08701172 3.26953125 0.17578125 C4.35621094 0.22089844 5.44289062 0.26601562 6.5625 0.3125 C7.39394531 0.37050781 8.22539062 0.42851563 9.08203125 0.48828125 C5.91636552 2.59872507 3.5700571 3.24380202 -0.10546875 4.11328125 C-1.19214844 4.37367187 -2.27882813 4.6340625 -3.3984375 4.90234375 C-4.22988281 5.09570312 -5.06132813 5.2890625 -5.91796875 5.48828125 C-3.7352554 0.62504274 -3.7352554 0.62504274 0 0 Z " fill="#DADFE7" transform="translate(124.91796875,80.51171875)"/>
<path d="M0 0 C0.91058531 3.07322544 1.08886184 5.80097361 1 9 C-0.32 9 -1.64 9 -3 9 C-2.44271087 5.65626525 -1.64826111 2.96687001 0 0 Z " fill="#1B2239" transform="translate(177,103)"/>
<path d="M0 0 C-0.33 1.98 -0.66 3.96 -1 6 C-3.86724686 5.42655063 -4.8614515 5.1385485 -7 3 C-2.25 0 -2.25 0 0 0 Z " fill="#E8EFF4" transform="translate(173,110)"/>
<path d="M0 0 C1.32 0 2.64 0 4 0 C2.84826645 2.46800047 1.95216435 4.04783565 0 6 C-0.99 6 -1.98 6 -3 6 C-3 5.34 -3 4.68 -3 4 C-2.34 4 -1.68 4 -1 4 C-0.67 2.68 -0.34 1.36 0 0 Z " fill="#E2EAEE" transform="translate(315,59)"/>
<path d="M0 0 C2.31 1.98 4.62 3.96 7 6 C6.34 6.66 5.68 7.32 5 8 C4.01 8 3.02 8 2 8 C1.33333333 5.33333333 0.66666667 2.66666667 0 0 Z " fill="#1D193A" transform="translate(173,196)"/>
<path d="M0 0 C1.125 1.6875 1.125 1.6875 2 4 C1.125 6.75 1.125 6.75 0 9 C-0.99 8.67 -1.98 8.34 -3 8 C-3 7.34 -3 6.68 -3 6 C-2.34 6 -1.68 6 -1 6 C-1.0309375 4.7934375 -1.0309375 4.7934375 -1.0625 3.5625 C-1 1 -1 1 0 0 Z " fill="#1C2338" transform="translate(64,92)"/>
<path d="M0 0 C0.99 0.33 1.98 0.66 3 1 C2.34 2.65 1.68 4.3 1 6 C0.67 5.34 0.34 4.68 0 4 C-1.65 4.66 -3.3 5.32 -5 6 C-3.35 4.02 -1.7 2.04 0 0 Z " fill="#1F203D" transform="translate(329,49)"/>
<path d="M0 0 C1.32 1.65 2.64 3.3 4 5 C2.02 5.99 2.02 5.99 0 7 C-0.33 6.34 -0.66 5.68 -1 5 C-1.66 5 -2.32 5 -3 5 C-2 3 -2 3 0 0 Z " fill="#1E1E3E" transform="translate(169,189)"/>
<path d="M0 0 C0.33 0.66 0.66 1.32 1 2 C1.99 2 2.98 2 4 2 C3.67 3.32 3.34 4.64 3 6 C1.02 5.01 -0.96 4.02 -3 3 C-2.01 2.01 -1.02 1.02 0 0 Z " fill="#E4E6EC" transform="translate(127,141)"/>
<path d="M0 0 C0.66 0.33 1.32 0.66 2 1 C0.375 6.75 0.375 6.75 -3 9 C-2.44271087 5.65626525 -1.64826111 2.96687001 0 0 Z " fill="#D4D5E0" transform="translate(181,137)"/>
<path d="M0 0 C0.99 0.33 1.98 0.66 3 1 C-1.39453125 5.00390625 -1.39453125 5.00390625 -3 6 C-3.99 5.67 -4.98 5.34 -6 5 C-5.195625 4.360625 -4.39125 3.72125 -3.5625 3.0625 C-1.7249496 1.59396498 -1.7249496 1.59396498 0 0 Z " fill="#DAE1E6" transform="translate(308,69)"/>
<path d="M0 0 C0.66 0 1.32 0 2 0 C2 0.99 2 1.98 2 3 C2.99 3 3.98 3 5 3 C5 3.99 5 4.98 5 6 C2.525 5.01 2.525 5.01 0 4 C0 2.68 0 1.36 0 0 Z " fill="#24243B" transform="translate(173,140)"/>
<path d="M0 0 C0.33 0.66 0.66 1.32 1 2 C3.01669827 3.13350534 3.01669827 3.13350534 5 4 C3.02 4.99 3.02 4.99 1 6 C-0.32 5.01 -1.64 4.02 -3 3 C-2.01 3 -1.02 3 0 3 C0 2.01 0 1.02 0 0 Z " fill="#1A193A" transform="translate(147,116)"/>
<path d="M0 0 C0.66 0.33 1.32 0.66 2 1 C1.75 3.375 1.75 3.375 1 6 C-1.0625 7.3125 -1.0625 7.3125 -3 8 C-2.25 2.25 -2.25 2.25 0 0 Z " fill="#EDEEF6" transform="translate(200,99)"/>
<path d="M0 0 C1.485 0.99 1.485 0.99 3 2 C3.99 2 4.98 2 6 2 C5.67 2.99 5.34 3.98 5 5 C3.35 5 1.7 5 0 5 C0 3.35 0 1.7 0 0 Z " fill="#110238" transform="translate(324,55)"/>
<path d="M0 0 C2.97 0.495 2.97 0.495 6 1 C6.33 1.99 6.66 2.98 7 4 C6.01 4.495 6.01 4.495 5 5 C3.35 3.35 1.7 1.7 0 0 Z " fill="#E9EFF4" transform="translate(147,99)"/>
<path d="M0 0 C0.33 0.99 0.66 1.98 1 3 C1.66 3 2.32 3 3 3 C3 3.66 3 4.32 3 5 C0.69 4.34 -1.62 3.68 -4 3 C-2.68 2.01 -1.36 1.02 0 0 Z M3 2 C5 3 5 3 5 3 Z " fill="#191D3A" transform="translate(114,88)"/>
<path d="M0 0 C1 3 1 3 0.1875 5.0625 C-1 7 -1 7 -3 9 C-2.5020163 5.26512223 -2.12508244 3.18762365 0 0 Z " fill="#E3E4EC" transform="translate(188,123)"/>
<path d="M0 0 C0.66 0 1.32 0 2 0 C0.7508258 3.45925163 -0.67527795 6.14693203 -3 9 C-3.6875 7.1875 -3.6875 7.1875 -4 5 C-2.625 3.375 -2.625 3.375 -1 2 C-0.67 1.34 -0.34 0.68 0 0 Z " fill="#171835" transform="translate(69,84)"/>
<path d="M0 0 C0.99 0.33 1.98 0.66 3 1 C1.35 2.65 -0.3 4.3 -2 6 C-2.33 4.68 -2.66 3.36 -3 2 C-2.01 1.34 -1.02 0.68 0 0 Z " fill="#1B1C3C" transform="translate(306,73)"/>
</svg>
